<svg width="24" height="25" viewBox="0 0 24 25" fill="none" xmlns="http://www.w3.org/2000/svg">
<g clip-path="url(#clip0_1625_2013)">
<path d="M20.9144 8.6816C20.7752 8.7896 18.3176 10.1744 18.3176 13.2536C18.3176 16.8152 21.4448 18.0752 21.5384 18.1064C21.524 18.1832 21.0416 19.832 19.8896 21.512C18.8624 22.9904 17.7896 24.4664 16.1576 24.4664C14.5256 24.4664 14.1056 23.5184 12.2216 23.5184C10.3856 23.5184 9.7328 24.4976 8.24 24.4976C6.7472 24.4976 5.7056 23.1296 4.508 21.4496C3.1208 19.4768 2 16.412 2 13.5032C2 8.8376 5.0336 6.3632 8.0192 6.3632C9.6056 6.3632 10.928 7.4048 11.924 7.4048C12.872 7.4048 14.3504 6.3008 16.1552 6.3008C16.8392 6.3008 19.2968 6.3632 20.9144 8.6816ZM15.2984 4.3256C16.0448 3.44 16.5728 2.2112 16.5728 0.9824C16.5728 0.812 16.5584 0.6392 16.5272 0.5C15.3128 0.5456 13.868 1.3088 12.9968 2.3192C12.3128 3.0968 11.6744 4.3256 11.6744 5.5712C11.6744 5.7584 11.7056 5.9456 11.72 6.0056C11.7968 6.02 11.9216 6.0368 12.0464 6.0368C13.136 6.0368 14.5064 5.3072 15.2984 4.3256Z" fill="white"/>
</g>
<defs>
<clipPath id="clip0_1625_2013">
<rect width="24" height="24" fill="white" transform="translate(0 0.5)"/>
</clipPath>
</defs>
</svg>
