<svg width="20" height="21" viewBox="0 0 20 21" fill="none" xmlns="http://www.w3.org/2000/svg">
<path d="M10.2041 8.68164V12.5544H15.6958C15.4546 13.7999 14.731 14.8544 13.6456 15.5635L16.9573 18.0817C18.8868 16.3363 20 13.7727 20 10.7272C20 10.0181 19.9351 9.33624 19.8145 8.68175L10.2041 8.68164Z" fill="#4285F4"/>
<path d="M4.48548 12.4033L3.73857 12.9636L1.09473 14.9818C2.77377 18.2454 6.21509 20.5 10.2039 20.5C12.959 20.5 15.2688 19.6091 16.9572 18.0819L13.6455 15.5636C12.7364 16.1636 11.5768 16.5273 10.2039 16.5273C7.55089 16.5273 5.29677 14.7728 4.48965 12.4091L4.48548 12.4033Z" fill="#34A853"/>
<path d="M1.09479 6.01807C0.399092 7.36347 0.000244141 8.88168 0.000244141 10.4998C0.000244141 12.118 0.399092 13.6362 1.09479 14.9816C1.09479 14.9907 4.49004 12.3998 4.49004 12.3998C4.28596 11.7998 4.16533 11.1635 4.16533 10.4997C4.16533 9.83602 4.28596 9.19969 4.49004 8.59969L1.09479 6.01807Z" fill="#FBBC05"/>
<path d="M10.2042 4.48184C11.707 4.48184 13.0428 4.99092 14.1096 5.97275L17.0316 3.10914C15.2598 1.49098 12.9593 0.5 10.2042 0.5C6.2153 0.5 2.77377 2.74546 1.09473 6.01822L4.48988 8.60005C5.29688 6.23638 7.5511 4.48184 10.2042 4.48184Z" fill="#EA4335"/>
</svg>
