<svg width="34" height="40" viewBox="0 0 34 40" fill="none" xmlns="http://www.w3.org/2000/svg">
<path d="M33.75 34.9023C33.75 34.9023 31.7606 21.908 31.0975 19.275C30.4344 16.6419 29.6055 15.1642 27.7819 14.5062C26.6321 14.0904 24.339 12.6943 22.8006 11.7192C23.1892 10.9652 23.412 10.052 23.412 8.95453C23.412 4.92401 20.485 0 16.8763 0C13.265 0 10.338 4.92401 10.338 8.95453C10.338 10.052 10.5608 10.9639 10.952 11.7192C9.41361 12.6943 7.1179 14.0904 5.96805 14.5062C4.14448 15.1642 3.31558 16.6419 2.65247 19.275C1.98935 21.908 0 34.9023 0 34.9023L0.782478 35.1773L0.448267 36.8866L3.9482 37.8117L4.32617 36.4234L5.13916 36.7116L7.46006 24.2095C7.46006 24.2095 7.46006 36.0524 7.46006 37.863C7.46006 38.7696 12.151 40.0039 16.8763 40C21.599 40.0039 26.2899 38.7696 26.2899 37.863C26.2899 36.0524 26.2899 24.2095 26.2899 24.2095L28.6108 36.7116L29.4251 36.4234L29.8018 37.8117L33.3031 36.8866L32.9688 35.1773L33.75 34.9023ZM13.5369 31.9416C13.509 32.0705 12.822 35.0891 9.83535 36.0642C9.79689 36.0774 9.7571 36.0839 9.71864 36.0839C9.56347 36.0839 9.41759 35.9853 9.36321 35.83C9.30088 35.6365 9.40565 35.4273 9.60193 35.3642C12.1762 34.5207 12.8021 31.8152 12.8088 31.7863C12.8525 31.5889 13.0554 31.4626 13.2517 31.5034C13.452 31.5455 13.582 31.7416 13.5369 31.9416ZM13.6284 24.1174C13.1828 24.1174 12.8207 23.7608 12.8207 23.316C12.8207 23.0107 13.0024 22.7515 13.2557 22.6173V14.5983C13.2557 14.3944 13.4241 14.2286 13.6284 14.2286C13.8353 14.2286 14.001 14.3944 14.001 14.5983V22.6173C14.257 22.7528 14.4361 23.0107 14.4361 23.316C14.4361 23.7608 14.074 24.1174 13.6284 24.1174ZM16.8763 24.3029C16.623 19.7723 15.5116 15.4984 14.8817 13.3719C12.3353 12.689 12.3273 9.69932 12.3273 8.95453C12.3273 5.628 14.7079 1.97381 16.8763 1.97381C19.0434 1.97381 21.4227 5.62668 21.4227 8.95453C21.4227 9.69932 21.4173 12.6903 18.871 13.3719C18.2384 15.4984 17.127 19.7723 16.8763 24.3029ZM19.3139 23.316C19.3139 23.0107 19.4943 22.7502 19.7489 22.6173V14.5983C19.7489 14.3944 19.9174 14.2286 20.1216 14.2286C20.3285 14.2286 20.4943 14.3944 20.4943 14.5983V22.6173C20.7503 22.7515 20.9293 23.0107 20.9293 23.316C20.9293 23.7608 20.5699 24.1174 20.1216 24.1174C19.676 24.1174 19.3139 23.7608 19.3139 23.316ZM24.3855 35.8287C24.3337 35.9839 24.1892 36.0826 24.0314 36.0826C23.9929 36.0826 23.9531 36.0761 23.9146 36.0629C20.9266 35.0878 20.2397 32.0692 20.2145 31.9403C20.1707 31.7416 20.298 31.5442 20.4996 31.5007C20.6972 31.46 20.8988 31.585 20.9426 31.7837C20.9479 31.8113 21.5752 34.5181 24.1481 35.3615C24.3443 35.426 24.4504 35.6339 24.3855 35.8287Z" fill="white"/>
</svg>
