<svg width="21" height="40" viewBox="0 0 21 40" fill="none" xmlns="http://www.w3.org/2000/svg">
<path d="M19.2485 0H1.44105C0.213462 1.7669 -0.0385792 4.42896 0.00441605 6.03862L0.0296202 7C2.35433 6.69241 4.15272 4.13793 4.15272 2.75862H5.67979C5.67979 5.51724 3.21868 8.00414 0.0652024 8.33793L0.899903 39.4552C0.908799 39.7572 1.18308 40 1.51666 40H7.1357C7.45742 40 7.72428 39.7338 7.75245 39.4455L10.3129 11.9283L12.9045 39.4455C12.9326 39.7338 13.2321 40 13.5538 40H19.1729C19.5079 40 19.7807 39.7572 19.7911 39.4538L20.6258 8.33655C17.4709 8.00414 15.0098 5.51724 15.0098 2.75862H16.5368C16.5368 4.13793 18.3352 6.69241 20.6599 7L20.6851 6.03862C20.7281 4.42896 20.4776 1.7669 19.2485 0Z" fill="white"/>
</svg>
