<svg width="70" height="70" viewBox="0 0 70 70" fill="none" xmlns="http://www.w3.org/2000/svg">
<g filter="url(#filter0_d_171_30115)">
<path d="M25.2437 11L15 22.634L19.6025 27.2365L23.6137 24.1362C23.7051 24.065 23.8148 24.0211 23.9301 24.0096C24.0455 23.9982 24.1617 24.0196 24.2653 24.0714C24.369 24.1233 24.4558 24.2034 24.5159 24.3025C24.5759 24.4017 24.6066 24.5158 24.6045 24.6317V46.7171C24.6045 47.2124 24.8052 47.6978 25.2757 48.2034C25.7461 48.7089 26.4777 49.2059 27.4011 49.6256C29.248 50.4652 31.878 51 34.7843 51C37.6906 51 40.3205 50.4652 42.1674 49.6256C43.0909 49.2059 43.8064 48.7089 44.2769 48.2034C44.7473 47.6978 44.9641 47.2124 44.9641 46.7171V24.6317C44.9619 24.5158 44.9927 24.4017 45.0527 24.3025C45.1127 24.2034 45.1996 24.1233 45.3032 24.0714C45.4069 24.0196 45.5231 23.9982 45.6384 24.0096C45.7537 24.0211 45.8635 24.065 45.9549 24.1362L49.9661 27.2365L54.5685 22.634L44.3088 11H42.2313C41.8843 14.3516 38.6381 16.8969 34.7843 16.8969C30.9305 16.8969 27.6843 14.3516 27.3372 11H25.2437ZM28.6636 11C29.033 13.5787 31.5359 15.6664 34.7843 15.6664C38.0323 15.6664 40.519 13.5782 40.8889 11H28.6636Z" fill="white"/>
</g>
<defs>
<filter id="filter0_d_171_30115" x="0" y="0" width="69.5703" height="70" filterUnits="userSpaceOnUse" color-interpolation-filters="sRGB">
<feFlood flood-opacity="0" result="BackgroundImageFix"/>
<feColorMatrix in="SourceAlpha" type="matrix" values="0 0 0 0 0 0 0 0 0 0 0 0 0 0 0 0 0 0 127 0" result="hardAlpha"/>
<feOffset dy="4"/>
<feGaussianBlur stdDeviation="7.5"/>
<feColorMatrix type="matrix" values="0 0 0 0 0 0 0 0 0 0 0 0 0 0 0 0 0 0 0.25 0"/>
<feBlend mode="normal" in2="BackgroundImageFix" result="effect1_dropShadow_171_30115"/>
<feBlend mode="normal" in="SourceGraphic" in2="effect1_dropShadow_171_30115" result="shape"/>
</filter>
</defs>
</svg>
