<svg width="40" height="17" viewBox="0 0 40 17" fill="none" xmlns="http://www.w3.org/2000/svg">
<path fill-rule="evenodd" clip-rule="evenodd" d="M2.60792 0H16.1616C16.621 1.04034 17.1113 1.96422 17.6322 2.78647L15.2586 3.53772C14.1579 3.88528 14.7162 5.456 15.8169 5.10752L18.6444 4.21241C18.9085 4.54326 19.1795 4.85416 19.4578 5.14649L17.2107 6.16688C16.1641 6.64205 16.9264 8.13435 17.972 7.65872L20.8015 6.37384C21.2304 6.71304 21.6745 7.01976 22.1334 7.29818L20.2497 8.40302C19.2631 8.98212 20.1911 10.3881 21.1763 9.80948L23.9049 8.20952C27.1667 9.6234 31.0846 10.0596 35.7195 10.8586C38.2215 11.5333 40.086 11.4517 39.9969 14.1657H21.0115C16.8354 13.3282 14.5071 11.4243 12.2462 9.57375C9.56872 7.38309 6.97778 5.26482 1.70197 4.93444C2.19921 3.68157 2.44906 2.4946 2.60792 0ZM0.000260221 17H36.9934C38.3606 17 39.5223 16.1267 39.8823 14.9416L0.000260221 14.9444V17ZM3.14007 7.58077C3.79912 7.58077 4.33324 8.0847 4.33324 8.70649C4.33324 9.32828 3.79912 9.83221 3.14007 9.83221C2.48102 9.83221 1.9469 9.32828 1.9469 8.70649C1.9469 8.0847 2.48102 7.58077 3.14007 7.58077ZM2.63103 10.8531C3.29008 10.8531 3.8242 11.357 3.8242 11.9788C3.8242 12.6001 3.29008 13.104 2.63103 13.104C1.97248 13.104 1.43836 12.6001 1.43836 11.9788C1.43836 11.357 1.97248 10.8531 2.63103 10.8531ZM18.1107 14.1657H0.000260221C0.000260221 10.6795 -0.0533488 8.86844 1.37835 5.69312C6.57153 5.95854 9.09705 8.02391 11.7082 10.1603C13.5156 11.6391 15.3644 13.1514 18.1107 14.1657Z" fill="white"/>
</svg>
