{
	"asset":{
		"generator":"Khronos glTF Blender I/O v3.6.27",
		"version":"2.0"
	},
	"extensionsUsed":[
		"KHR_materials_specular",
		"KHR_materials_ior"
	],
	"scene":0,
	"scenes":[
		{
			"name":"Scene",
			"nodes":[
				0
			]
		}
	],
	"nodes":[
		{
			"mesh":0,
			"name":"bag",
			"translation":[
				-0.5072217583656311,
				13.296813011169434,
				5.733091354370117
			]
		}
	],
	"materials":[
		{
			"doubleSided":true,
			"name":"Material.002",
			"normalTexture":{
				"index":0
			},
			"pbrMetallicRoughness":{
				"baseColorTexture":{
					"index":1
				},
				"metallicRoughnessTexture":{
					"index":2
				}
			}
		},
		{
			"doubleSided":true,
			"extensions":{
				"KHR_materials_specular":{
					"specularColorFactor":[
						0.6550515095952482,
						0.6550515095952482,
						0.6550515095952482
					]
				},
				"KHR_materials_ior":{
					"ior":1.4500000476837158
				}
			},
			"name":"bag",
			"normalTexture":{
				"index":3,
				"scale":1.2999999523162842
			},
			"pbrMetallicRoughness":{
				"baseColorTexture":{
					"index":4
				},
				"metallicFactor":0.43740159273147583,
				"metallicRoughnessTexture":{
					"index":5
				}
			}
		},
		{
			"doubleSided":true,
			"extensions":{
				"KHR_materials_specular":{
					"specularColorFactor":[
						0.3454339598341998,
						0.3454339598341998,
						0.3454339598341998
					]
				},
				"KHR_materials_ior":{
					"ior":1.4500000476837158
				}
			},
			"name":"Material.001",
			"pbrMetallicRoughness":{
				"baseColorTexture":{
					"index":6
				},
				"metallicFactor":0,
				"roughnessFactor":0.5
			}
		},
		{
			"doubleSided":true,
			"extensions":{
				"KHR_materials_specular":{
					"specularColorFactor":[
						1.3258044921473595,
						1.3258044921473595,
						1.3258044921473595
					]
				},
				"KHR_materials_ior":{
					"ior":1.4500000476837158
				}
			},
			"name":"bag handle",
			"normalTexture":{
				"index":7
			},
			"pbrMetallicRoughness":{
				"baseColorTexture":{
					"index":8
				},
				"metallicFactor":0,
				"metallicRoughnessTexture":{
					"index":9
				}
			}
		},
		{
			"doubleSided":true,
			"extensions":{
				"KHR_materials_specular":{
					"specularColorFactor":[
						0,
						0,
						0
					]
				},
				"KHR_materials_ior":{
					"ior":1.4500000476837158
				}
			},
			"name":"Material.005",
			"pbrMetallicRoughness":{
				"baseColorFactor":[
					0.2357787787914276,
					0.3216836154460907,
					0.7484017610549927,
					1
				],
				"metallicFactor":0,
				"roughnessFactor":0.5
			}
		}
	],
	"meshes":[
		{
			"name":"Mesh",
			"primitives":[
				{
					"attributes":{
						"COLOR_0":0,
						"POSITION":1,
						"NORMAL":2,
						"TEXCOORD_0":3
					},
					"indices":4,
					"material":0
				},
				{
					"attributes":{
						"COLOR_0":5,
						"POSITION":6,
						"NORMAL":7,
						"TEXCOORD_0":8
					},
					"indices":9,
					"material":1
				},
				{
					"attributes":{
						"COLOR_0":10,
						"POSITION":11,
						"NORMAL":12,
						"TEXCOORD_0":13
					},
					"indices":14,
					"material":2
				},
				{
					"attributes":{
						"COLOR_0":15,
						"POSITION":16,
						"NORMAL":17,
						"TEXCOORD_0":18
					},
					"indices":19,
					"material":3
				},
				{
					"attributes":{
						"COLOR_0":20,
						"POSITION":21,
						"NORMAL":22,
						"TEXCOORD_0":23
					},
					"indices":24,
					"material":4
				}
			]
		}
	],
	"textures":[
		{
			"sampler":0,
			"source":0
		},
		{
			"sampler":0,
			"source":1
		},
		{
			"sampler":0,
			"source":2
		},
		{
			"sampler":0,
			"source":3
		},
		{
			"sampler":0,
			"source":4
		},
		{
			"sampler":0,
			"source":5
		},
		{
			"sampler":0,
			"source":6
		},
		{
			"sampler":0,
			"source":7
		},
		{
			"sampler":0,
			"source":8
		},
		{
			"sampler":0,
			"source":9
		}
	],
	"images":[
		{
			"mimeType":"image/png",
			"name":"Aluminum-Scuffed_normal",
			"uri":"textures/Aluminum-Scuffed_normal.png"
		},
		{
			"mimeType":"image/png",
			"name":"Aluminum-Scuffed_basecolor",
			"uri":"textures/Aluminum-Scuffed_basecolor.png"
		},
		{
			"mimeType":"image/png",
			"name":"Aluminum-Scuffed_metallic-Aluminum-Scuffed_roughness",
			"uri":"textures/Aluminum-Scuffed_metallic-Aluminum-Scuffed_roughness.png"
		},
		{
			"mimeType":"image/png",
			"name":"bag_Normal_OpenGL",
			"uri":"textures/bag_Normal_OpenGL.png"
		},
		{
			"mimeType":"image/png",
			"name":"bag_Base_color",
			"uri":"textures/bag_Base_color.png"
		},
		{
			"mimeType":"image/png",
			"name":"bag_Height",
			"uri":"textures/bag_Height.png"
		},
		{
			"mimeType":"image/png",
			"name":"bag_Base_color",
			"uri":"textures/bag_Base_color-1.png"
		},
		{
			"mimeType":"image/png",
			"name":"bag handle_Normal_OpenGL",
			"uri":"textures/bag%20handle_Normal_OpenGL.png"
		},
		{
			"mimeType":"image/png",
			"name":"bag handle_Base_color",
			"uri":"textures/bag%20handle_Base_color.png"
		},
		{
			"mimeType":"image/png",
			"name":"bag handle_Roughness",
			"uri":"textures/bag%20handle_Roughness.png"
		}
	],
	"accessors":[
		{
			"bufferView":0,
			"componentType":5123,
			"count":43878,
			"normalized":true,
			"type":"VEC4"
		},
		{
			"bufferView":1,
			"componentType":5126,
			"count":43878,
			"max":[
				2.7660629749298096,
				1.287989616394043,
				0.3217664957046509
			],
			"min":[
				-2.775108814239502,
				-0.0048863887786865234,
				-0.2173176407814026
			],
			"type":"VEC3"
		},
		{
			"bufferView":2,
			"componentType":5126,
			"count":43878,
			"type":"VEC3"
		},
		{
			"bufferView":3,
			"componentType":5126,
			"count":43878,
			"type":"VEC2"
		},
		{
			"bufferView":4,
			"componentType":5123,
			"count":234312,
			"type":"SCALAR"
		},
		{
			"bufferView":5,
			"componentType":5123,
			"count":1721,
			"normalized":true,
			"type":"VEC4"
		},
		{
			"bufferView":6,
			"componentType":5126,
			"count":1721,
			"max":[
				2.8097243309020996,
				0.1044304370880127,
				0.9679871797561646
			],
			"min":[
				-2.8423662185668945,
				-3.4166061878204346,
				-1.030089259147644
			],
			"type":"VEC3"
		},
		{
			"bufferView":7,
			"componentType":5126,
			"count":1721,
			"type":"VEC3"
		},
		{
			"bufferView":8,
			"componentType":5126,
			"count":1721,
			"type":"VEC2"
		},
		{
			"bufferView":9,
			"componentType":5123,
			"count":9291,
			"type":"SCALAR"
		},
		{
			"bufferView":10,
			"componentType":5123,
			"count":155,
			"normalized":true,
			"type":"VEC4"
		},
		{
			"bufferView":11,
			"componentType":5126,
			"count":155,
			"max":[
				2.322766065597534,
				0.0978090763092041,
				0.7068881988525391
			],
			"min":[
				-2.4693186283111572,
				-0.18826448917388916,
				-0.604586124420166
			],
			"type":"VEC3"
		},
		{
			"bufferView":12,
			"componentType":5126,
			"count":155,
			"type":"VEC3"
		},
		{
			"bufferView":13,
			"componentType":5126,
			"count":155,
			"type":"VEC2"
		},
		{
			"bufferView":14,
			"componentType":5123,
			"count":477,
			"type":"SCALAR"
		},
		{
			"bufferView":15,
			"componentType":5123,
			"count":3697,
			"normalized":true,
			"type":"VEC4"
		},
		{
			"bufferView":16,
			"componentType":5126,
			"count":3697,
			"max":[
				2.7498347759246826,
				2.2952356338500977,
				0.6685973405838013
			],
			"min":[
				-2.758881092071533,
				-0.42922747135162354,
				-0.5895110368728638
			],
			"type":"VEC3"
		},
		{
			"bufferView":17,
			"componentType":5126,
			"count":3697,
			"type":"VEC3"
		},
		{
			"bufferView":18,
			"componentType":5126,
			"count":3697,
			"type":"VEC2"
		},
		{
			"bufferView":19,
			"componentType":5123,
			"count":17616,
			"type":"SCALAR"
		},
		{
			"bufferView":20,
			"componentType":5123,
			"count":192816,
			"normalized":true,
			"type":"VEC4"
		},
		{
			"bufferView":21,
			"componentType":5126,
			"count":192816,
			"max":[
				2.356884479522705,
				0.011727333068847656,
				-0.50309157371521
			],
			"min":[
				-2.373835802078247,
				-3.304414749145508,
				-1.0318533182144165
			],
			"type":"VEC3"
		},
		{
			"bufferView":22,
			"componentType":5126,
			"count":192816,
			"type":"VEC3"
		},
		{
			"bufferView":23,
			"componentType":5126,
			"count":192816,
			"type":"VEC2"
		},
		{
			"bufferView":24,
			"componentType":5125,
			"count":1045656,
			"type":"SCALAR"
		}
	],
	"bufferViews":[
		{
			"buffer":0,
			"byteLength":351024,
			"byteOffset":0,
			"target":34962
		},
		{
			"buffer":0,
			"byteLength":526536,
			"byteOffset":351024,
			"target":34962
		},
		{
			"buffer":0,
			"byteLength":526536,
			"byteOffset":877560,
			"target":34962
		},
		{
			"buffer":0,
			"byteLength":351024,
			"byteOffset":1404096,
			"target":34962
		},
		{
			"buffer":0,
			"byteLength":468624,
			"byteOffset":1755120,
			"target":34963
		},
		{
			"buffer":0,
			"byteLength":13768,
			"byteOffset":2223744,
			"target":34962
		},
		{
			"buffer":0,
			"byteLength":20652,
			"byteOffset":2237512,
			"target":34962
		},
		{
			"buffer":0,
			"byteLength":20652,
			"byteOffset":2258164,
			"target":34962
		},
		{
			"buffer":0,
			"byteLength":13768,
			"byteOffset":2278816,
			"target":34962
		},
		{
			"buffer":0,
			"byteLength":18582,
			"byteOffset":2292584,
			"target":34963
		},
		{
			"buffer":0,
			"byteLength":1240,
			"byteOffset":2311168,
			"target":34962
		},
		{
			"buffer":0,
			"byteLength":1860,
			"byteOffset":2312408,
			"target":34962
		},
		{
			"buffer":0,
			"byteLength":1860,
			"byteOffset":2314268,
			"target":34962
		},
		{
			"buffer":0,
			"byteLength":1240,
			"byteOffset":2316128,
			"target":34962
		},
		{
			"buffer":0,
			"byteLength":954,
			"byteOffset":2317368,
			"target":34963
		},
		{
			"buffer":0,
			"byteLength":29576,
			"byteOffset":2318324,
			"target":34962
		},
		{
			"buffer":0,
			"byteLength":44364,
			"byteOffset":2347900,
			"target":34962
		},
		{
			"buffer":0,
			"byteLength":44364,
			"byteOffset":2392264,
			"target":34962
		},
		{
			"buffer":0,
			"byteLength":29576,
			"byteOffset":2436628,
			"target":34962
		},
		{
			"buffer":0,
			"byteLength":35232,
			"byteOffset":2466204,
			"target":34963
		},
		{
			"buffer":0,
			"byteLength":1542528,
			"byteOffset":2501436,
			"target":34962
		},
		{
			"buffer":0,
			"byteLength":2313792,
			"byteOffset":4043964,
			"target":34962
		},
		{
			"buffer":0,
			"byteLength":2313792,
			"byteOffset":6357756,
			"target":34962
		},
		{
			"buffer":0,
			"byteLength":1542528,
			"byteOffset":8671548,
			"target":34962
		},
		{
			"buffer":0,
			"byteLength":4182624,
			"byteOffset":10214076,
			"target":34963
		}
	],
	"samplers":[
		{
			"magFilter":9729,
			"minFilter":9987
		}
	],
	"buffers":[
		{
			"byteLength":14396700,
			"uri":"scene.bin"
		}
	]
}
